<?xml version="1.0" standalone="no"?><!DOCTYPE svg PUBLIC "-//W3C//DTD SVG 1.1//EN" "http://www.w3.org/Graphics/SVG/1.1/DTD/svg11.dtd"><svg t="1572255487775" class="icon" viewBox="0 0 1070 1024" version="1.1" xmlns="http://www.w3.org/2000/svg" p-id="25696" width="33.4375" height="32" xmlns:xlink="http://www.w3.org/1999/xlink"><defs><style type="text/css"></style></defs><path d="M871.339499 752.297084H302.636787c-14.009863 0-26.064862-10.402673-28.69462-24.808163L168.21657 147.126838 14.899327 57.133247C0.842919 48.871617-4.137331 30.253858 3.728672 15.569101c7.912547-14.661485 25.669235-19.921002 39.772187-11.636099l165.139519 96.928706c7.493648 4.421718 12.729893 12.054999 14.358947 20.898434l103.770732 569.517238h524.089907l149.593691-432.839617-646.92057-32.185451c-16.127633-0.814527-28.531715-15.103657-27.787005-31.929456 0.767983-16.825799 14.405491-29.578964 30.556397-29.020431L1042.73924 199.44274c9.239063 0.465444 17.733415 5.515511 22.876571 13.567692 5.119884 8.052181 6.330038 18.152315 3.165019 27.275016L898.823965 732.14336a29.32297 29.32297 0 0 1-27.461194 20.153724zM378.597243 1023.976728c-66.418854 0-120.433627-56.458353-120.433627-125.879321 0-69.397696 54.014772-125.856049 120.433627-125.856049 66.418854 0 120.433627 56.458353 120.433626 125.856049 0 69.420968-54.014772 125.879321-120.433626 125.879321z m0-190.715666c-34.210132 0-62.043681 29.136792-62.043681 64.859617 0 35.769369 27.833549 64.859617 62.043681 64.859617s62.043681-29.090248 62.043681-64.859617c0-35.746097-27.833549-64.859617-62.043681-64.859617zM821.094823 1023.976728c-66.442126 0-120.480171-56.458353-120.480171-125.879321 0-69.397696 54.038045-125.856049 120.480171-125.856049 66.418854 0 120.433627 56.458353 120.433626 125.856049 0 69.420968-54.038045 125.879321-120.433626 125.879321z m0-190.715666c-34.210132 0-62.066953 29.136792-62.066954 64.859617 0 35.769369 27.856821 64.859617 62.066954 64.859617 34.210132 0 62.043681-29.090248 62.04368-64.859617 0-35.746097-27.833549-64.859617-62.04368-64.859617z m-268.118998-197.580964c-6.911843 0-13.823686-2.420309-19.548646-7.30747l-112.916707-96.463262a33.279244 33.279244 0 0 1-4.328629-45.404059 29.974591 29.974591 0 0 1 43.449195-4.561351l91.273562 77.961864 248.337628-259.485011a29.974591 29.974591 0 0 1 43.681917 0c12.054999 12.613532 12.054999 33.046522 0 45.660053L574.828419 626.208313a30.27713 30.27713 0 0 1-21.875866 9.448513z" fill="#d81e06" p-id="25697"></path></svg>