<?xml version="1.0" standalone="no"?><!DOCTYPE svg PUBLIC "-//W3C//DTD SVG 1.1//EN" "http://www.w3.org/Graphics/SVG/1.1/DTD/svg11.dtd"><svg t="1572254560894" class="icon" viewBox="0 0 1024 1024" version="1.1" xmlns="http://www.w3.org/2000/svg" p-id="6941" xmlns:xlink="http://www.w3.org/1999/xlink" width="32" height="32"><defs><style type="text/css"></style></defs><path d="M401.08 66.013H144.003c-43.624 0-79.1 35.486-79.1 79.101v257.077c0 43.615 35.475 79.1 79.1 79.1H401.08c43.625 0 79.1-35.485 79.1-79.1V145.114c0-43.615-35.475-79.1-79.1-79.1z m39.55 336.178c0 21.813-17.747 39.55-39.55 39.55H144.003c-21.803 0-39.55-17.737-39.55-39.55V145.114c0-21.813 17.748-39.55 39.55-39.55H401.08c21.803 0 39.55 17.737 39.55 39.55v257.077zM875.684 66.013H618.607c-43.625 0-79.101 35.486-79.101 79.101v257.077c0 43.615 35.476 79.1 79.1 79.1h257.079c43.624 0 79.1-35.485 79.1-79.1V145.114c-0.002-43.615-35.477-79.1-79.101-79.1z m39.55 336.178c0 21.813-17.748 39.55-39.55 39.55H618.608c-21.804 0-39.55-17.737-39.55-39.55V145.114c0-21.813 17.747-39.55 39.55-39.55h257.078c21.802 0 39.548 17.737 39.548 39.55v257.077zM401.08 540.617H144.003c-43.624 0-79.1 35.486-79.1 79.1v257.078c0 43.605 35.475 79.1 79.1 79.1H401.08c43.625 0 79.1-35.495 79.1-79.1V619.717c0-43.614-35.475-79.1-79.1-79.1z m39.55 336.177c0 21.822-17.747 39.55-39.55 39.55H144.003c-21.803 0-39.55-17.728-39.55-39.55V619.717c0-21.811 17.748-39.55 39.55-39.55H401.08c21.803 0 39.55 17.739 39.55 39.55v257.077z m435.054-336.177H618.607c-43.625 0-79.101 35.486-79.101 79.1v257.078c0 43.605 35.476 79.1 79.1 79.1h257.079c43.624 0 79.1-35.495 79.1-79.1V619.717c-0.002-43.614-35.477-79.1-79.101-79.1z m39.55 336.177c0 21.822-17.748 39.55-39.55 39.55H618.608c-21.804 0-39.55-17.728-39.55-39.55V619.717c0-21.811 17.747-39.55 39.55-39.55h257.078c21.802 0 39.548 17.739 39.548 39.55v257.077z" p-id="6942" fill="#8a8a8a"></path></svg>