<?xml version="1.0" standalone="no"?><!DOCTYPE svg PUBLIC "-//W3C//DTD SVG 1.1//EN" "http://www.w3.org/Graphics/SVG/1.1/DTD/svg11.dtd"><svg t="1572255324742" class="icon" viewBox="0 0 1024 1024" version="1.1" xmlns="http://www.w3.org/2000/svg" p-id="18165" width="32" height="32" xmlns:xlink="http://www.w3.org/1999/xlink"><defs><style type="text/css"></style></defs><path d="M299.378496 960.93573c-4.305256-1.73254-8.483615-3.932754-12.929071-5.13315-49.810795-13.443818-84.039983-55.63471-84.499469-107.419558-0.77468-87.232851-0.367385-174.474913-0.30496-261.712881 0.01535-20.995157 10.617311-33.649969 27.165989-33.362406 16.344007 0.285516 27.577378 13.464286 27.630593 33.896597 0.196484 81.780414 0.01535 163.567992 0.112569 245.354547 0.064471 51.634414 20.335093 71.962344 71.458853 71.96746 123.361386 0.020467 246.721749 0.029677 370.078019-0.005117 48.240968-0.010234 69.294456-21.093399 69.388605-69.924843 0.150433-80.420375-0.050144-160.845867 0.189321-241.266242 0.02149-7.997522-0.772633-18.953563 3.795625-23.321244 7.899279-7.547245 19.894027-15.485412 29.829783-15.07914 13.545131 0.554659 21.340028 12.233189 21.256113 27.66027-0.29882 59.292182-0.094149 118.590504-0.089032 177.883709 0.005117 27.264232 0.232302 54.52744-0.077775 81.787578-0.669274 58.543086-32.367704 99.039301-88.813935 114.187006-3.138631 0.843245-5.935461 2.963637-8.895004 4.48639L299.378496 960.934707 299.378496 960.93573zM299.378496 960.93573" p-id="18166" fill="#8a8a8a"></path><path d="M506.342892 185.876114c-4.610216 6.808383-8.257454 14.583836-13.973916 20.285972C367.393758 330.761732 242.200566 455.146474 117.01249 579.539402c-17.130967 17.028632-24.294454 17.478908-39.168924 2.93396-15.08835-14.756783-15.147705-22.146432-0.258909-37.582723 1.4153-1.473632 2.895072-2.883815 4.344143-4.325723 133.894782-133.033117 267.780354-266.070328 401.686394-399.090141 20.763879-20.627773 36.113185-20.573535 57.009076 0.186251 134.385993 133.503861 268.764822 267.016931 403.106811 400.56889 18.001843 17.900531 17.957839 24.585087 2.378278 40.536126-12.757147 13.0662-24.193142 12.664022-36.50513-0.421622-11.203694-11.900599-23.060288-23.184114-34.66309-34.713235-115.011831-114.329253-230.085062-228.600174-344.894269-343.131027-5.210925-5.201715-8.080413-12.747937-12.042845-19.203262C514.115275 185.489286 510.229595 185.68577 506.342892 185.876114L506.342892 185.876114zM506.342892 185.876114" p-id="18167" fill="#8a8a8a"></path></svg>