<?xml version="1.0" standalone="no"?><!DOCTYPE svg PUBLIC "-//W3C//DTD SVG 1.1//EN" "http://www.w3.org/Graphics/SVG/1.1/DTD/svg11.dtd"><svg t="1572254982684" class="icon" viewBox="0 0 1024 1024" version="1.1" xmlns="http://www.w3.org/2000/svg" p-id="13336" width="32" height="32" xmlns:xlink="http://www.w3.org/1999/xlink"><defs><style type="text/css"></style></defs><path d="M766.7 921.5h-49.4c-11.3 0-20.4-9.1-20.4-20.4V721h-58.1v180.2c0 11.3-9.1 20.4-20.4 20.4H272.5c-47.6 0-86.3-39.1-86.3-87.2V631.1h-66.8c0.5 0.1-0.8 0.2-2.2 0.2-29.4 0-53.3-23.7-53.3-52.9 0-19.2 11.4-33.3 19.7-43.7 1.5-1.8 2.9-3.6 4.2-5.3l352.7-389.7c3.9-5.7 8.7-11.1 14.3-16.1l0.6-0.6c31.7-27.4 81.2-27.4 112.8 0 5.9 5.1 10.9 10.7 14.9 16.6l353.4 389.6c0.4 0.5 0.8 0.9 1.2 1.4l3.9 5.1c8.5 10.8 18.1 23.2 18.1 42.6 0 29.2-23.9 52.9-53.3 52.9-0.9 0-3.1-0.2-4-0.3l-49.7 0.1v203.2c0.3 48.2-38.4 87.3-86 87.3z m-29-40.8h29.1c25.1 0 45.5-20.8 45.5-46.5V610.7c0-11.3 9.1-20.4 20.4-20.4h71.9c0.9 0 2.8 0.2 3.7 0.3 5.4-0.1 11-5.5 11-12.3 0-5-2.3-8.4-9.5-17.5l-3.7-4.8-353.9-390.1c-0.7-0.8-1.4-1.7-2-2.6-2.1-3.3-4.9-6.4-8.4-9.4-0.2-0.2-0.4-0.3-0.6-0.5-6-5.1-15.9-10.9-29.3-10.9-13.8 0-23.8 6.2-29.8 11.3-3.5 3-6.3 6.2-8.4 9.5-0.6 0.9-1.3 1.8-2 2.6L119.3 555.3c-0.4 0.7-2.1 2.8-3.8 5-5 6.2-10.7 13.3-10.7 18.1 0 6.7 5.6 12.2 12.5 12.2-0.6 0 0.2-0.1 1.1-0.2h88.3c11.2 0 20.4 9.1 20.4 20.4v223.6c0 25.6 20.4 46.5 45.5 46.5h325.6V700.6c0-11.3 9.1-20.4 20.4-20.4h98.8c11.3 0 20.4 9.1 20.4 20.4v180.1z m152.6-558.9c-19.2 0-30.5-13.4-36.6-20.5l-97.4-96.4c-0.2-0.2-0.5-0.5-0.7-0.8l-2.3-2.4c-5.6-5.6-14.9-14.9-14.9-30.6 0-20.2 16.5-36.7 36.8-36.7h98.7c29.4 0 53.3 23.7 53.3 52.9v97.8c-0.1 20.2-16.6 36.7-36.9 36.7z m-105-145.6l98.3 97.4c1 1.2 1.9 2.2 2.7 3.1v-89.4c0-6.7-5.6-12.2-12.5-12.2h-89.6l1.1 1.1z" fill="#d81e06" p-id="13337"></path></svg>