<?xml version="1.0" standalone="no"?><!DOCTYPE svg PUBLIC "-//W3C//DTD SVG 1.1//EN" "http://www.w3.org/Graphics/SVG/1.1/DTD/svg11.dtd"><svg t="1572255688887" class="icon" viewBox="0 0 1024 1024" version="1.1" xmlns="http://www.w3.org/2000/svg" p-id="34069" width="32" height="32" xmlns:xlink="http://www.w3.org/1999/xlink"><defs><style type="text/css"></style></defs><path d="M933.932522 936.158609a42.340174 42.340174 0 0 1-84.591305 0l-0.089043-0.534261h-1.157565a338.498783 338.498783 0 0 0-325.231305-296.96c-3.606261 0.133565-7.168 0.534261-10.818782 0.534261-3.650783 0-7.168-0.356174-10.818783-0.534261a338.587826 338.587826 0 0 0-325.142261 296.96H174.970435l0.044522 0.534261a42.295652 42.295652 0 0 1-84.591305 0l-0.400695-3.917913c0-5.565217 1.113043-10.818783 3.072-15.671653a424.025043 424.025043 0 0 1 251.681391-329.015652A296.781913 296.781913 0 0 1 512 45.501217a296.781913 296.781913 0 0 1 167.357217 541.918609 424.069565 424.069565 0 0 1 252.349218 333.156174c1.068522 3.739826 1.78087 7.568696 1.780869 11.575652l0.445218 3.962435zM723.878957 342.461217a211.923478 211.923478 0 1 0-423.846957 0 211.968 211.968 0 1 0 423.846957 0z" p-id="34070" fill="#8a8a8a"></path></svg>