<?xml version="1.0" standalone="no"?><!DOCTYPE svg PUBLIC "-//W3C//DTD SVG 1.1//EN" "http://www.w3.org/Graphics/SVG/1.1/DTD/svg11.dtd"><svg t="1572254702562" class="icon" viewBox="0 0 1024 1024" version="1.1" xmlns="http://www.w3.org/2000/svg" p-id="10189" xmlns:xlink="http://www.w3.org/1999/xlink" width="32" height="32"><defs><style type="text/css"></style></defs><path d="M512 549.463415c-151.726829 0-274.731707-117.410341-274.731707-262.243903S360.273171 24.97561 512 24.97561s274.731707 117.410341 274.731707 262.243902c0 69.557073-28.946732 136.241951-80.471414 185.443903C654.73561 521.84039 584.878829 549.463415 512 549.463415z m0-466.219708c-86.41561 0-164.339512 49.701463-197.40722 125.927025-33.092683 76.200585-14.810537 163.939902 46.304781 222.282927 61.115317 58.318049 153.025561 75.776 232.872585 44.206829 79.847024-31.569171 131.921171-105.946537 131.921171-188.440976C725.516488 174.679415 629.884878 83.543415 512 83.543415v-0.299708z" fill="#d81e06" p-id="10190"></path><path d="M42.808195 999.02439c-8.042146 0-15.734634-3.096976-21.429073-8.59161A28.921756 28.921756 0 0 1 12.487805 969.653073c-0.074927-187.117268 114.46322-356.451902 291.590244-431.079024 177.127024-74.677073 383.125854-40.460488 524.412878 87.164878a28.721951 28.721951 0 0 1 0.049951 40.060878 31.044683 31.044683 0 0 1-41.284683 2.797268c-123.629268-111.715902-303.953171-141.71161-459.001756-76.350439C173.205854 657.607805 72.978732 805.863024 73.128585 969.653073c0 7.79239-3.196878 15.260098-8.866341 20.779707-5.694439 5.494634-13.411902 8.59161-21.454049 8.59161z" fill="#d81e06" p-id="10191"></path><path d="M977.870049 807.686244H645.544585c-18.581854 0-33.642146-13.08722-33.642146-29.221464 0-16.109268 15.060293-29.196488 33.642146-29.196487h332.325464c18.581854 0 33.642146 13.08722 33.642146 29.221463 0 16.109268-15.060293 29.196488-33.642146 29.196488z m0 191.338146H645.544585C626.962732 999.02439 611.902439 985.937171 611.902439 969.802927c0-16.109268 15.060293-29.196488 33.642146-29.196488h332.325464c18.581854 0 33.642146 13.08722 33.642146 29.221463 0 16.109268-15.060293 29.196488-33.642146 29.196488z" fill="#d81e06" p-id="10192"></path></svg>