<?xml version="1.0" standalone="no"?><!DOCTYPE svg PUBLIC "-//W3C//DTD SVG 1.1//EN" "http://www.w3.org/Graphics/SVG/1.1/DTD/svg11.dtd"><svg t="1572330757554" class="icon" viewBox="0 0 1024 1024" version="1.1" xmlns="http://www.w3.org/2000/svg" p-id="1729" width="108" height="108" xmlns:xlink="http://www.w3.org/1999/xlink"><defs><style type="text/css"></style></defs><path d="M865.486869 204.8c-125.80202-5.559596-242.553535-50.553535-344.307071-122.69899l-9.309091-6.593939-9.309091 6.593939c-101.753535 72.145455-218.505051 117.268687-344.436363 122.69899H139.636364V500.363636c0 217.987879 151.272727 410.892929 367.967676 461.058586l5.171718 0.775758 3.620202-0.775758C732.961616 911.385859 884.234343 718.480808 884.234343 500.363636V204.8h-18.747474z m-353.616162-73.826263c97.357576 66.715152 205.058586 100.589899 323.10303 109.89899V524.929293C807.692929 846.868687 514.585859 912.549495 509.80202 913.713131v-0.90505S216.177778 848.549495 188.638384 524.024242V241.00202c1.810101-0.129293 3.490909-0.258586 5.30101-0.387879 115.975758-10.084848 221.866667-43.959596 317.931313-109.640404z m0 0" p-id="1730" fill="#e0620d"></path><path d="M551.305051 383.612121c-2.715152 17.454545-5.171717 34.521212-7.628283 51.070707h72.791919c42.020202 0 66.068687 10.214141 72.016161 30.771717 5.947475 20.557576 8.791919 34.521212 8.79192 41.89091v165.10707c0 22.49697-6.464646 39.951515-19.135354 51.975758-12.8 12.153535-31.676768 18.230303-56.630303 18.230303H416.969697c-26.634343 0-44.735354-4.783838-54.30303-14.351515s-15.127273-19.135354-16.678788-28.573738c-1.551515-9.438384-2.327273-18.488889-2.327273-27.280808V503.337374c0-7.757576 2.973737-21.074747 8.791919-40.210101 5.947475-19.006061 27.410101-28.573737 64.387879-28.573738h61.672727c2.327273-16.808081 4.913131-33.874747 7.628283-51.070707H308.880808c-7.369697 0-13.317172-2.715152-17.713131-8.274747-4.39596-5.559596-6.464646-12.670707-6.076768-21.462626 0.387879-7.757576 2.715152-14.092929 7.111111-19.135354 4.39596-5.042424 9.955556-7.628283 16.678788-7.628283h417.616162c6.335354 0 12.282828 2.456566 17.713131 7.369697 5.430303 4.913131 8.145455 11.894949 8.274747 21.204041 0.129293 9.309091-2.456566 16.290909-7.886868 20.945454-5.430303 4.654545-11.507071 7.111111-18.230303 7.111111H551.305051z m85.333333 228.848485H403.781818l-0.517172 50.036364c-0.387879 7.111111 0.387879 11.894949 2.068687 14.610101 1.680808 2.715152 4.525253 5.171717 8.533334 7.369697s8.791919 3.232323 14.092929 3.232323h185.923232c15.515152 0 23.272727-8.40404 23.272728-25.212121l-0.517172-50.036364z m-232.856566-54.561616h232.856566l0.517172-43.959596c0-4.39596-1.810101-9.438384-5.301011-15.127273-3.490909-5.688889-9.567677-8.533333-17.971717-8.533333H430.545455c-11.765657 0-19.393939 2.327273-22.755556 6.852525-3.361616 4.525253-4.913131 10.214141-4.525253 16.937374l0.517172 43.830303z" p-id="1731" fill="#e0620d"></path></svg>